<svg viewBox="0 0 50 50" xmlns="http://www.w3.org/2000/svg"><path d="m4.8125 4c-.203125.035156-.386719.136719-.53125.28125l-1 1c-.363281.363281-.390625.945313-.0625 1.34375l.78125.9375v11.4375c0 .550781.449219 1 1 1 .566406 0 1 .433594 1 1s-.433594 1-1 1-1-.433594-1-1h-2c0 1.644531 1.355469 3 3 3s3-1.355469 3-3c0-1.257812-.890625-2.152344-2-2.59375v-8.40625l11 13.375v4.625h-17v7c0 1.644531 1.355469 3 3 3h4.09375c.476563 2.835938 2.941406 5 5.90625 5s5.429688-2.164062 5.90625-5h14.1875c.476563 2.835938 2.941406 5 5.90625 5s5.429688-2.164062 5.90625-5h2.09375c1.644531 0 3-1.355469 3-3v-9.625c0-2.289062-1.59375-4.3125-1.59375-4.3125h-.03125l-4.125-5.5v-.03125l-.03125-.03125c-.921875-1.113281-2.304687-2.5-4.21875-2.5h-8c-1.644531 0-3 1.355469-3 3v12h-2v-5c0-.289062-.125-.5625-.34375-.75l-21-18c-.203125-.183594-.476562-.273437-.75-.25-.03125 0-.0625 0-.09375 0zm2.0625 3.9375 18.125 15.53125v4.53125h-6v-5c0-.226562-.078125-.449219-.21875-.625zm25.125 7.0625h8c.785156 0 1.894531.84375 2.65625 1.75.007813.011719.023438.019531.03125.03125l.15625.21875h-4.84375c-1.59375 0-3 1.289063-3 3v4c0 .832031.375 1.5625.90625 2.09375s1.261719.90625 2.09375.90625h10v8c0 .554688-.445312 1-1 1h-2.09375c-.476562-2.835937-2.941406-5-5.90625-5s-5.429687 2.164063-5.90625 5h-2.09375v-20c0-.554687.445313-1 1-1zm6 4h6.34375l2.4375 3.25s.90625 1.550781 1.09375 2.75h-9.875c-.167969 0-.4375-.125-.65625-.34375s-.34375-.488281-.34375-.65625v-4c0-.503906.59375-1 1-1zm-36 11h27v6h-10.09375c-.476562-2.835937-2.941406-5-5.90625-5s-5.429687 2.164063-5.90625 5h-4.09375c-.550781 0-1-.449219-1-1zm11 3c2.222656 0 4 1.777344 4 4s-1.777344 4-4 4-4-1.777344-4-4 1.777344-4 4-4zm26 0c2.222656 0 4 1.777344 4 4s-1.777344 4-4 4-4-1.777344-4-4 1.777344-4 4-4z"/></svg>